<?xml version="1.0" encoding="UTF-8" standalone="no"?>
<!-- Created with Inkscape (http://www.inkscape.org/) -->

<svg
   xmlns:dc="http://purl.org/dc/elements/1.1/"
   xmlns:cc="http://creativecommons.org/ns#"
   xmlns:rdf="http://www.w3.org/1999/02/22-rdf-syntax-ns#"
   xmlns:svg="http://www.w3.org/2000/svg"
   xmlns="http://www.w3.org/2000/svg"
   xmlns:sodipodi="http://sodipodi.sourceforge.net/DTD/sodipodi-0.dtd"
   xmlns:inkscape="http://www.inkscape.org/namespaces/inkscape"
   width="900"
   height="600"
   id="svg2"
   version="1.1"
   inkscape:version="0.48.0 r9654"
   sodipodi:docname="sinwar.svg">
  <defs
     id="defs4" />
  <sodipodi:namedview
     id="base"
     pagecolor="#ffffff"
     bordercolor="#666666"
     borderopacity="1.0"
     inkscape:pageopacity="0.0"
     inkscape:pageshadow="2"
     inkscape:zoom="1.6716902"
     inkscape:cx="412.93989"
     inkscape:cy="326.57127"
     inkscape:document-units="px"
     inkscape:current-layer="layer1"
     showgrid="false"
     showborder="true"
     inkscape:showpageshadow="false"
     showguides="true"
     inkscape:guide-bbox="true"
     inkscape:window-width="1600"
     inkscape:window-height="876"
     inkscape:window-x="-4"
     inkscape:window-y="-4"
     inkscape:window-maximized="1"
     fit-margin-top="0"
     fit-margin-left="0"
     fit-margin-right="0"
     fit-margin-bottom="0"
     borderlayer="true" />
  <metadata
     id="metadata7">
    <rdf:RDF>
      <cc:Work
         rdf:about="">
        <dc:format>image/svg+xml</dc:format>
        <dc:type
           rdf:resource="http://purl.org/dc/dcmitype/StillImage" />
        <dc:title />
      </cc:Work>
    </rdf:RDF>
  </metadata>
  <g
     inkscape:label="Layer 1"
     inkscape:groupmode="layer"
     id="layer1"
     style="display:inline"
     transform="translate(437.75253,-350.5269)">
    <path
       style="fill:none;stroke:#000000;stroke-width:1px;stroke-linecap:butt;stroke-linejoin:miter;stroke-opacity:1"
       d="m -404.15365,419.87382 -0.20718,470.15308"
       id="path2986"
       inkscape:connector-curvature="0"
       sodipodi:nodetypes="cc" />
    <path
       style="fill:#808080;stroke:#000000;stroke-width:1px;stroke-linecap:butt;stroke-linejoin:miter;stroke-opacity:1"
       d="m -413.89103,657.95222 857.71747,0"
       id="path2988"
       inkscape:connector-curvature="0" />
    <path
       style="fill:none;stroke:#ff0000;stroke-width:2;stroke-linecap:round;stroke-linejoin:round;stroke-miterlimit:4;stroke-opacity:1;stroke-dasharray:none"
       d="m 413.87719,657.74464 c -0.005,-0.0216 -22.35839,15.64438 -47.26253,34.80407 -30.39258,23.38213 -65.08884,51.66362 -73.93531,59.18156 -8.84647,7.51794 -37.30852,31.09737 -60.18774,48.43062 -35.11661,26.60426 -74.56183,48.76402 -107.39978,51.60283 -74.551438,6.4449 -136.259509,-162.4053 -147.565956,-194.13899 -11.306449,-31.73368 -35.043738,-99.46132 -48.801013,-137.11619 -16.308623,-44.63815 -30.543771,-56.96779 -38.700481,-57.02281 -8.15671,-0.055 -18.59001,10.66758 -30.04475,52.64945 -10.76975,39.47139 -22.65874,109.26548 -27.79518,141.48955 -5.13645,32.22408 -26.44898,194.13899 -41.94047,194.13899 -15.49149,0 -27.91693,-160.70648 -30.85023,-194.13899 -2.9333,-33.43251 -9.22876,-101.26387 -13.59853,-142.72151 -4.02031,-38.14235 -8.39256,-51.41749 -10.75221,-51.41749 -2.35965,0 -5.01565,6.11553 -8.47113,42.11581 -3.46137,36.06167 -7.72284,102.04935 -10.79759,150.45509 -3.07476,48.40574 -9.6188,195.70709 -16.32509,195.70709 -6.7063,0 -9.70579,-129.67279 -12.93827,-194.03671 -3.23247,-64.36392 -5.85403,-194.24128 -10.79094,-194.24128 -4.93691,0 -6.77621,129.52781 -9.74234,194.24128 -2.96613,64.71347 -3.30111,194.03671 -8.05456,194.03671 -4.75346,0 -5.27573,-129.32324 -7.7475,-194.03671 -2.47178,-64.71347 -2.80362,-194.24128 -6.04737,-194.24128 -3.24374,0 -4.4964,129.426 -6.22665,194.139 -1.73025,64.71299 -1.95396,194.13899 -5.19076,194.13899 -3.23681,0 -2.96613,-129.34876 -4.44923,-194.06175 -1.4831,-64.713 -0.93077,-194.21624 -4.03487,-194.21624 -3.1041,0 -2.70267,129.52817 -3.81498,194.24128 -1.11231,64.71311 -0.37595,194.03671 -3.27322,194.03671 -2.89727,0 -1.9557,-129.34864 -3.0685,-194.06175 -1.11279,-64.71311 -0.12651,-194.21624 -2.9838,-194.21624 -2.8573,0 -2.10461,129.426 -2.84615,194.139 -0.74153,64.71299 0.0822,194.13899 -2.43179,194.13899 -2.51397,0 -1.15612,-129.24648 -2.14484,-193.95947 -0.98874,-64.713 -0.32246,-194.31852 -2.54439,-194.31852 -2.22194,0 -1.33996,139.18225 -1.70013,194.139 -0.36018,54.95675 -0.93884,135.6009 -0.93884,135.6009"
       id="path3000"
       inkscape:connector-curvature="0"
       sodipodi:nodetypes="cszsszszszzzszszzzzzzzzzzzzzzzzzzzzzc" />
    <path
       style="fill:none;stroke:#ff0000;stroke-width:2;stroke-linecap:round;stroke-linejoin:miter;stroke-miterlimit:4;stroke-opacity:1;stroke-dasharray:none"
       d="m -404.39935,851.76372 0.23084,-388.27799"
       id="path2990"
       inkscape:connector-curvature="0"
       sodipodi:nodetypes="cc" />
    <path
       style="fill:#000000;fill-opacity:1;stroke:#000000;stroke-width:1px;stroke-linecap:butt;stroke-linejoin:miter;stroke-opacity:1"
       d="m -408.25333,419.66781 7.81716,0 -3.90858,-12.74486 z"
       id="path3760"
       inkscape:connector-curvature="0"
       sodipodi:nodetypes="cccc" />
    <path
       style="fill:#000000;fill-opacity:1;stroke:#000000;stroke-width:1px;stroke-linecap:butt;stroke-linejoin:miter;stroke-opacity:1"
       d="m 443.61135,654.62561 0,6.16687 10.49144,-2.87788 z"
       id="path3762"
       inkscape:connector-curvature="0" />
    <g
       style="font-size:40px;font-style:normal;font-weight:normal;line-height:125%;letter-spacing:0px;word-spacing:0px;fill:#000000;fill-opacity:1;stroke:none;font-family:Sans"
       id="text3764"
       transform="matrix(0.52434633,0,0,0.52395799,-198.2186,392.25271)">
      <path
         d="m 1168.256,557.67072 -3.5156,0 0,-22.40235 c -0.8464,0.80731 -1.9564,1.61461 -3.3301,2.42188 -1.3737,0.80731 -2.6074,1.41278 -3.7012,1.8164 l 0,-3.39843 c 1.9661,-0.92446 3.6849,-2.04425 5.1563,-3.35938 1.4713,-1.31508 2.513,-2.59112 3.125,-3.82812 l 2.2656,0 z"
         id="path3873"
         inkscape:connector-curvature="0" />
    </g>
    <g
       style="font-size:40px;font-style:normal;font-weight:normal;line-height:125%;letter-spacing:0px;word-spacing:0px;fill:#000000;fill-opacity:1;stroke:none;font-family:Sans"
       id="text3770"
       transform="matrix(0.52434633,0,0,0.52395799,-198.2186,392.25271)">
      <path
         d="m 1148.8958,566.32815 -0.086,-2.36736 35.6627,-0.1717 0.086,2.62491 z"
         id="path3876"
         inkscape:connector-curvature="0"
         sodipodi:nodetypes="ccccc" />
    </g>
    <g
       id="1"
       transform="matrix(0.52434633,0,0,0.52395799,427.30009,767.88932)">
      <g
         style="font-size:13.80000019px;font-style:normal;font-weight:normal;text-align:start;text-anchor:start;fill:#000000;font-family:Calibri"
         id="2" />
      <g
         style="font-size:13.80000019px;font-style:normal;font-weight:normal;text-align:start;text-anchor:start;fill:#000000;font-family:Calibri"
         id="3" />
    </g>
    <g
       id="1-9"
       transform="matrix(0.52434633,0,0,0.52395799,437.29261,764.56094)">
      <g
         style="font-size:13.80000019px;font-style:normal;font-weight:normal;text-align:start;text-anchor:start;fill:#000000;font-family:Calibri"
         id="2-8" />
      <g
         style="font-size:13.80000019px;font-style:normal;font-weight:normal;text-align:start;text-anchor:start;fill:#000000;font-family:Calibri"
         id="3-6" />
    </g>
    <g
       style="font-size:40px;font-style:normal;font-weight:normal;line-height:125%;letter-spacing:0px;word-spacing:0px;fill:#000000;fill-opacity:1;stroke:none;font-family:Sans"
       id="text3800"
       transform="matrix(0.52434633,0,0,0.52395799,-198.2186,392.25271)" />
    <g
       id="1-8"
       transform="matrix(0.52434633,0,0,0.52395799,453.11413,784.53122)">
      <g
         style="font-size:13.80000019px;font-style:normal;font-weight:normal;text-align:start;text-anchor:start;fill:#000000;font-family:Calibri"
         id="2-2" />
      <g
         style="font-size:13.80000019px;font-style:normal;font-weight:normal;text-align:start;text-anchor:start;fill:#000000;font-family:Calibri"
         id="3-5" />
    </g>
    <g
       style="font-size:40px;font-style:normal;font-weight:normal;line-height:125%;letter-spacing:0px;word-spacing:0px;fill:#000000;fill-opacity:1;stroke:none;font-family:Sans"
       id="flowRoot3817"
       transform="matrix(0.52434633,0,0,0.52395799,-198.2186,392.25271)" />
    <g
       style="font-size:40px;font-style:normal;font-weight:normal;line-height:125%;letter-spacing:0px;word-spacing:0px;fill:#000000;fill-opacity:1;stroke:none;font-family:Sans"
       id="flowRoot3825"
       transform="matrix(0.52434633,0,0,0.52395799,-198.2186,392.25271)" />
    <g
       id="1-5"
       transform="matrix(0.52434633,0,0,0.52395799,-362.94318,415.91319)">
      <g
         style="font-size:13.80000019px;font-style:normal;font-weight:normal;text-align:start;text-anchor:start;fill:#000000;font-family:Calibri"
         id="2-5" />
      <g
         style="font-size:13.80000019px;font-style:normal;font-weight:normal;text-align:start;text-anchor:start;fill:#000000;font-family:Calibri"
         id="3-59" />
    </g>
    <g
       transform="matrix(0.52434633,0,0,0.52395799,-215.28228,323.09599)"
       style="font-size:40px;font-style:normal;font-variant:normal;font-weight:normal;font-stretch:normal;text-align:start;line-height:125%;letter-spacing:0px;word-spacing:0px;writing-mode:lr-tb;text-anchor:start;fill:#000000;fill-opacity:1;stroke:none;font-family:Times New Roman;-inkscape-font-specification:'Times New Roman,'"
       id="flowRoot3846">
      <path
         d="m 1207.3008,708.23564 0,2.85156 -4.5313,0 -0.3906,5.9375 c -0.078,1.02866 -0.1172,1.92058 -0.1172,2.67578 0,1.80991 0.2116,2.91342 0.6348,3.31055 0.4231,0.39714 0.9342,0.59571 1.5332,0.5957 1.25,10e-6 1.9922,-0.78775 2.2266,-2.36328 l 0.7031,0 c -0.4297,3.6198 -1.875,5.42969 -4.336,5.42969 -1.1458,0 -2.067,-0.35156 -2.7636,-1.05469 -0.6967,-0.70312 -1.045,-1.74479 -1.045,-3.125 0,-0.91145 0.1368,-2.83853 0.4102,-5.78125 l 0.5273,-5.625 -4.1406,0 c -0.2734,4.7396 -0.6022,8.20314 -0.9863,10.39063 -0.3841,2.1875 -0.8073,3.60026 -1.2695,4.23828 -0.4623,0.63802 -1.0905,0.95703 -1.8848,0.95703 -0.599,0 -1.1035,-0.17578 -1.5137,-0.52734 -0.4101,-0.35156 -0.6152,-0.8138 -0.6152,-1.38672 0,-0.54687 0.3515,-1.29557 1.0547,-2.2461 1.0286,-1.3802 1.7968,-2.81574 2.3047,-4.30664 0.5078,-1.49087 0.8919,-3.86392 1.1523,-7.11914 l -1.3281,0 c -1.0677,2e-5 -1.8848,0.23765 -2.4512,0.71289 -0.5664,0.47528 -1.1035,1.15562 -1.6113,2.04102 l -0.7031,0 c 0.3776,-1.39322 0.8658,-2.53905 1.4648,-3.4375 0.599,-0.89842 1.2142,-1.48436 1.8457,-1.75781 0.6315,-0.27342 1.7546,-0.41014 3.3691,-0.41016 z"
         id="path3890"
         inkscape:connector-curvature="0" />
    </g>
    <g
       style="font-size:40px;font-style:normal;font-variant:normal;font-weight:normal;font-stretch:normal;text-align:start;line-height:125%;letter-spacing:0px;word-spacing:0px;writing-mode:lr-tb;text-anchor:start;fill:#000000;fill-opacity:1;stroke:none;font-family:Sans;-inkscape-font-specification:Sans"
       id="text3856"
       transform="matrix(0.52434633,0,0,0.52395799,-198.2186,392.25271)">
      <path
         d="m -409.95496,146.41776 -3.51562,0 0,-22.40235 c -0.84637,0.80731 -1.95639,1.61461 -3.33008,2.42188 -1.3737,0.80731 -2.60743,1.41278 -3.70117,1.8164 l 0,-3.39843 c 1.96614,-0.92446 3.68489,-2.04425 5.15625,-3.35938 1.47134,-1.31508 2.51301,-2.59112 3.125,-3.82812 l 2.26562,0 z"
         id="path3893"
         inkscape:connector-curvature="0" />
    </g>
    <g
       style="font-size:40px;font-style:normal;font-variant:normal;font-weight:normal;font-stretch:normal;text-align:start;line-height:125%;letter-spacing:0px;word-spacing:0px;writing-mode:lr-tb;text-anchor:start;fill:#000000;fill-opacity:1;stroke:none;font-family:Sans;-inkscape-font-specification:Sans"
       id="text3860"
       transform="matrix(0.52434633,0,0,0.52395799,-198.2186,392.25271)">
      <path
         d="m -437.75253,879.11371 0,-3.53516 10.80078,0 0,3.53516 z"
         id="path3896"
         inkscape:connector-curvature="0" />
      <path
         d="m -410.76035,887.70746 -3.51562,0 0,-22.40235 c -0.84637,0.80732 -1.95639,1.61461 -3.33008,2.42188 -1.3737,0.80731 -2.60743,1.41278 -3.70117,1.81641 l 0,-3.39844 c 1.96614,-0.92446 3.68489,-2.04425 5.15625,-3.35938 1.47134,-1.31507 2.51301,-2.59111 3.125,-3.82812 l 2.26562,0 z"
         id="path3898"
         inkscape:connector-curvature="0" />
    </g>
    <g
       style="font-size:40px;font-style:oblique;font-variant:normal;font-weight:normal;font-stretch:normal;text-align:start;line-height:125%;letter-spacing:0px;word-spacing:0px;writing-mode:lr-tb;text-anchor:start;fill:#000000;fill-opacity:1;stroke:none;font-family:Sans;-inkscape-font-specification:Sans Oblique"
       id="text3864"
       transform="matrix(0.52434633,0,0,0.52395799,-198.2186,392.25271)">
      <path
         d="m -436.44662,82.571533 0.21484,-3.320312 c 0.72916,0.208328 1.4388,0.312495 2.12891,0.3125 0.71614,-5e-6 1.29556,-0.162766 1.73828,-0.488282 0.57291,-0.429691 1.19791,-1.236982 1.875,-2.421875 l 1.13281,-2.03125 -3.45703,-20.800781 3.47656,0 1.5625,10.488281 c 0.31249,2.070321 0.57942,4.140632 0.80078,6.210938 l 9.27735,-16.699219 3.6914,0 -13.22265,23.496094 c -1.27605,2.291662 -2.40887,3.808587 -3.39844,4.550781 -0.98959,0.74218 -2.12891,1.113273 -3.41797,1.113281 -0.82032,-8e-6 -1.6211,-0.136727 -2.40234,-0.410156 z"
         id="path3901"
         inkscape:connector-curvature="0" />
    </g>
    <g
       style="font-size:40px;font-style:oblique;font-variant:normal;font-weight:normal;font-stretch:normal;text-align:start;line-height:125%;letter-spacing:0px;word-spacing:0px;writing-mode:lr-tb;text-anchor:start;fill:#000000;fill-opacity:1;stroke:none;font-family:Sans;-inkscape-font-specification:Sans Oblique"
       id="text3868"
       transform="matrix(0.52434633,0,0,0.52395799,-198.2186,392.25271)">
      <path
         d="m 1197.165,477.87338 9.0235,-10.52734 -5.1758,-10.21484 3.9062,0 1.7579,3.6914 c 0.651,1.38023 1.2369,2.70184 1.7578,3.96485 l 5.9765,-7.65625 4.3164,0 -8.7109,10.48828 5.2344,10.2539 -3.9063,0 -2.0703,-4.21875 c -0.4427,-0.89843 -0.944,-2.01171 -1.5039,-3.33984 l -6.1719,7.55859 z"
         id="path3904"
         inkscape:connector-curvature="0" />
    </g>
  </g>
</svg>
